<svg id="9e9d5773-e018-4e81-a5bf-8fe79e587cff" data-name="Layer 1" xmlns="http://www.w3.org/2000/svg" width="52.8mm" height="52.8mm" viewBox="0 0 149.67 149.67"><title>bracket</title><path d="M.22,146.75a3.21,3.21,0,0,0,3.2,3.2H34.3a3.21,3.21,0,0,0,3.2-3.2l-.09-65.09a5.83,5.83,0,0,1,1.48-3.58l39-39a5.83,5.83,0,0,1,3.58-1.48h65.2a3.21,3.21,0,0,0,3.2-3.2V3.49a3.21,3.21,0,0,0-3.2-3.2H67.19a8.93,8.93,0,0,0-5.48,2.27L2.49,61.79A8.93,8.93,0,0,0,.22,67.27Z" transform="translate(-0.22 -0.28)" style="fill:#e01f26"/></svg>