<svg id="ce0a7339-5229-429a-80dc-fe97a98aab19" data-name="Layer 1" xmlns="http://www.w3.org/2000/svg" width="235.76" height="283.14" viewBox="0 0 235.76 283.14"><title>stopadani</title><path d="M169.16,2.46A9.67,9.67,0,0,0,163.23,0H72.53A9.67,9.67,0,0,0,66.6,2.46L2.46,66.6A9.67,9.67,0,0,0,0,72.53v90.71a9.67,9.67,0,0,0,2.46,5.93L66.6,233.3l4.91,4.91,43.91,43.91a3.48,3.48,0,0,0,4.91,0l43.91-43.91,4.91-4.91,64.14-64.14a9.67,9.67,0,0,0,2.46-5.93V72.53a9.67,9.67,0,0,0-2.46-5.93Z" style="fill:#fff"/><path d="M10.53,160.11a6.45,6.45,0,0,0,1.64,4L116.24,268.14a2.32,2.32,0,0,0,3.28,0L223.59,164.06a6.45,6.45,0,0,0,1.64-4V75.81a6.45,6.45,0,0,0-1.64-4L164,12.24a6.45,6.45,0,0,0-4-1.64H75.73a6.45,6.45,0,0,0-4,1.64L12.17,71.85a6.45,6.45,0,0,0-1.64,4Z" style="fill:#e01f21"/><path d="M66,120H57.73a.84.84,0,0,0-.83.68l-10,50.15a.84.84,0,0,0,.83,1H54.3a.84.84,0,0,0,.83-.69l2-11.13h9.33l2,11.12a.84.84,0,0,0,.83.7h6.88a.84.84,0,0,0,.83-1l-10.1-50.15A.85.85,0,0,0,66,120Zm-.94,32.67H58.46l3.35-18.58Z" style="fill:#fff"/><path d="M94.64,120H82.24a.84.84,0,0,0-.84.84V171a.84.84,0,0,0,.84.84H94.64c8.52,0,13-4,13-11.45V131.42C107.66,123.93,103.16,120,94.64,120Zm4.6,12.74v26.37c0,3.67-1.37,5.1-4.89,5.1H89.82V127.61h4.53C97.87,127.61,99.24,129,99.24,132.71Z" style="fill:#fff"/><path d="M129.82,120H121.5a.85.85,0,0,0-.83.68l-10,50.15a.84.84,0,0,0,.83,1h6.52a.85.85,0,0,0,.83-.69l2-11.13h9.33l2,11.12a.85.85,0,0,0,.83.7h6.88a.85.85,0,0,0,.83-1l-10.1-50.15A.85.85,0,0,0,129.82,120Zm-7.59,32.67,3.35-18.58,3.3,18.58Z" style="fill:#fff"/><path d="M171.59,120h-6.24a.84.84,0,0,0-.84.84v29.76l-11-30a.85.85,0,0,0-.79-.56H146a.84.84,0,0,0-.84.84V171a.84.84,0,0,0,.84.84h6.23a.84.84,0,0,0,.84-.84V140.11l11.26,31.15a.84.84,0,0,0,.79.56h6.45a.84.84,0,0,0,.84-.84V120.82A.84.84,0,0,0,171.59,120Z" style="fill:#fff"/><rect x="178.63" y="119.98" width="8.42" height="51.84" rx="0.84" ry="0.84" style="fill:#fff"/><path d="M88.51,112.36c8.62,0,12.81-3.7,12.81-11.3V94.1c0-5.15-2.85-7.8-7.46-10.41l-6.5-3.57c-2.73-1.57-3.52-2.41-3.52-5V71.68c0-3.32,1.35-4.74,4.53-4.74s4.53,1.42,4.53,4.74v6.81a.84.84,0,0,0,.84.84h6.59a.84.84,0,0,0,.84-.84v-8c0-7.09-4.64-11.16-12.74-11.16H88.3c-8.1,0-12.74,4.07-12.74,11.16v6.3c0,5.1,2.51,7.48,7.46,10.34l6.44,3.58C92.31,92.35,93,93.43,93,96v3.94c0,3.33-1.46,4.89-4.6,4.89s-4.6-1.55-4.6-4.89V92.53a.84.84,0,0,0-.84-.84H76.41a.84.84,0,0,0-.84.84v8.53c0,7.61,4.19,11.3,12.81,11.3Z" style="fill:#fff"/><path d="M105.71,67.58h7.9v43.36a.84.84,0,0,0,.84.84h6.73a.84.84,0,0,0,.84-.84V67.58h7.9a.84.84,0,0,0,.84-.84V60.79a.84.84,0,0,0-.84-.84H105.71a.84.84,0,0,0-.84.84v5.95A.84.84,0,0,0,105.71,67.58Z" style="fill:#fff"/><path d="M147.7,112.36h.57c8.52,0,13-4,13-11.45V70.82c0-7.49-4.5-11.45-13-11.45h-.57c-8.52,0-13,4-13,11.45v30.09C134.67,108.4,139.18,112.36,147.7,112.36Zm-4.6-12.74V72.11c0-3.67,1.37-5.1,4.89-5.1s4.89,1.43,4.89,5.1V99.62c0,3.67-1.37,5.1-4.89,5.1S143.1,103.29,143.1,99.62Z" style="fill:#fff"/><path d="M180.73,59.95H168.19a.84.84,0,0,0-.84.84v50.15a.84.84,0,0,0,.84.84h6.74a.84.84,0,0,0,.84-.84V91.8h5c8.52,0,13-4,13-11.45v-9C193.76,63.9,189.25,59.95,180.73,59.95Zm-5,7.64h4.67c3.52,0,4.89,1.43,4.89,5.1v6.38c0,3.62-1.37,5-4.89,5h-4.67Z" style="fill:#fff"/><path d="M50.63,95.27,52.74,86h4.59l-2,8.87a.85.85,0,0,0,.82,1h4a.84.84,0,0,0,.82-.66L63,86h5.9a.84.84,0,0,0,.84-.84V81.55a.84.84,0,0,0-.84-.84H64.25l1.24-5.57h5.4a.84.84,0,0,0,.84-.84V70.66a.84.84,0,0,0-.84-.84H66.71l2-8.87a.85.85,0,0,0-.82-1h-4a.84.84,0,0,0-.82.66L61,69.82H56.41l2-8.87a.85.85,0,0,0-.82-1h-4a.84.84,0,0,0-.82.66l-2.11,9.25h-5.9a.84.84,0,0,0-.84.84v3.63a.84.84,0,0,0,.84.84h4.68L48.25,80.7h-5.4a.84.84,0,0,0-.84.84v3.63a.84.84,0,0,0,.84.84H47l-2,8.87a.85.85,0,0,0,.82,1h4A.84.84,0,0,0,50.63,95.27ZM54,80.7l1.24-5.57h4.59L58.55,80.7Z" style="fill:#fff"/></svg>